<svg width="16" height="16" viewBox="0 0 16 16" fill="none" xmlns="http://www.w3.org/2000/svg">
<path d="M7.99996 8.66667C7.82315 8.66667 7.65358 8.73691 7.52855 8.86193C7.40353 8.98695 7.33329 9.15652 7.33329 9.33333V11.3333C7.33329 11.5101 7.40353 11.6797 7.52855 11.8047C7.65358 11.9298 7.82315 12 7.99996 12C8.17677 12 8.34634 11.9298 8.47136 11.8047C8.59639 11.6797 8.66663 11.5101 8.66663 11.3333V9.33333C8.66663 9.15652 8.59639 8.98695 8.47136 8.86193C8.34634 8.73691 8.17677 8.66667 7.99996 8.66667ZM11.3333 6H5.99996V4.66667C5.99899 4.27079 6.11552 3.88353 6.3348 3.55394C6.55408 3.22434 6.86624 2.96723 7.23175 2.81517C7.59725 2.66312 7.99967 2.62295 8.38802 2.69976C8.77637 2.77658 9.13319 2.96691 9.41329 3.24667C9.66392 3.50271 9.84319 3.81988 9.93329 4.16667C9.95518 4.25159 9.99358 4.33137 10.0463 4.40145C10.099 4.47153 10.165 4.53054 10.2405 4.57511C10.3161 4.61969 10.3996 4.64895 10.4865 4.66122C10.5733 4.6735 10.6617 4.66855 10.7466 4.64667C10.8315 4.62478 10.9113 4.58638 10.9814 4.53366C11.0515 4.48094 11.1105 4.41494 11.1551 4.33941C11.1996 4.26389 11.2289 4.18032 11.2412 4.09349C11.2535 4.00666 11.2485 3.91825 11.2266 3.83333C11.0747 3.25653 10.7735 2.72996 10.3533 2.30667C9.88675 1.84158 9.29285 1.52516 8.6466 1.39736C8.00035 1.26957 7.33072 1.33613 6.72227 1.58864C6.11381 1.84115 5.59383 2.26829 5.22796 2.81612C4.8621 3.36395 4.66677 4.0079 4.66663 4.66667V6C4.13619 6 3.62749 6.21071 3.25241 6.58579C2.87734 6.96086 2.66663 7.46957 2.66663 8V12.6667C2.66663 13.1971 2.87734 13.7058 3.25241 14.0809C3.62749 14.456 4.13619 14.6667 4.66663 14.6667H11.3333C11.8637 14.6667 12.3724 14.456 12.7475 14.0809C13.1226 13.7058 13.3333 13.1971 13.3333 12.6667V8C13.3333 7.46957 13.1226 6.96086 12.7475 6.58579C12.3724 6.21071 11.8637 6 11.3333 6ZM12 12.6667C12 12.8435 11.9297 13.013 11.8047 13.1381C11.6797 13.2631 11.5101 13.3333 11.3333 13.3333H4.66663C4.48981 13.3333 4.32025 13.2631 4.19522 13.1381C4.0702 13.013 3.99996 12.8435 3.99996 12.6667V8C3.99996 7.82319 4.0702 7.65362 4.19522 7.5286C4.32025 7.40357 4.48981 7.33333 4.66663 7.33333H11.3333C11.5101 7.33333 11.6797 7.40357 11.8047 7.5286C11.9297 7.65362 12 7.82319 12 8V12.6667Z" fill="#6C727F"/>
</svg>
