<svg width="32" height="24" viewBox="0 0 32 24" fill="none" xmlns="http://www.w3.org/2000/svg">
<mask id="mask0_8001_22" style="mask-type:luminance" maskUnits="userSpaceOnUse" x="0" y="0" width="32" height="24">
<path d="M-1.04907e-06 24L0 0L32 1.39876e-06L32 24L-1.04907e-06 24Z" fill="white"/>
</mask>
<g mask="url(#mask0_8001_22)">
<path d="M13.6091 13.3876C13.6091 12.8428 13.3766 12.3204 12.9628 11.9352C12.5489 11.55 11.9876 11.3336 11.4022 11.3336C10.8169 11.3336 10.2556 11.55 9.84173 11.9352C9.42786 12.3204 9.19535 12.8428 9.19535 13.3876C9.19331 15.1121 8.45639 16.7653 7.14629 17.9848C5.83617 19.2041 4.05985 19.8901 2.20702 19.8921C1.62172 19.8921 1.06038 20.1084 0.646508 20.4937C0.232635 20.8788 0.00012163 21.4013 0.000121606 21.946C0.000121583 22.4908 0.232634 23.0133 0.646508 23.3984C1.06038 23.7837 1.62172 24.0001 2.20702 24.0001C5.23004 23.9969 8.12827 22.8778 10.2658 20.8882C12.4034 18.8987 13.6058 16.2012 13.6091 13.3876Z" fill="#EC6C0C"/>
<path d="M32 2.05384C32 1.50907 31.7675 0.986603 31.3536 0.601387C30.9396 0.216171 30.3784 -0.000243617 29.793 -0.000243642C26.77 0.00291955 23.8717 1.12204 21.7341 3.11159C19.5964 5.10115 18.3941 7.79864 18.3907 10.6123C18.3907 11.157 18.6232 11.6795 19.0372 12.0647C19.451 12.4499 20.0123 12.6663 20.5977 12.6663C21.183 12.6663 21.7443 12.4499 22.1581 12.0647C22.5721 11.6795 22.8045 11.157 22.8045 10.6123C22.8067 8.88779 23.5436 7.2345 24.8537 6.0151C26.1639 4.79569 27.9402 4.10976 29.793 4.10779C30.3783 4.10779 30.9396 3.8914 31.3536 3.50621C31.7675 3.12103 32 2.5986 32 2.05384Z" fill="#BE3818"/>
<path d="M32 13.3876C31.9951 12.8458 31.7605 12.3277 31.3472 11.9461C30.9339 11.5646 30.3752 11.3505 29.793 11.3505C29.2109 11.3505 28.6523 11.5646 28.239 11.9461C27.8256 12.3277 27.591 12.8458 27.5862 13.3876C27.5862 14.2417 27.4054 15.0876 27.0543 15.8767C26.703 16.6659 26.1882 17.3828 25.5393 17.9869C24.8904 18.5909 24.1199 19.07 23.2721 19.3969C22.4241 19.7238 21.5153 19.8919 20.5976 19.8919C19.6798 19.8919 18.7711 19.7238 17.9232 19.3969C17.0754 19.0699 16.3049 18.5909 15.6559 17.9869C15.007 17.3828 14.4922 16.6659 14.141 15.8767C13.7898 15.0876 13.6091 14.2417 13.6091 13.3876C13.6091 12.8428 13.3766 12.3204 12.9627 11.9352C12.5488 11.55 11.9875 11.3336 11.4022 11.3336C10.8169 11.3336 10.2555 11.55 9.84166 11.9352C9.42778 12.3204 9.19527 12.8428 9.19527 13.3876C9.18981 14.7845 9.48071 16.1686 10.0513 17.4606C10.6219 18.7527 11.4609 19.9272 12.5202 20.9166C13.5796 21.9062 14.8384 22.6915 16.2245 23.2272C17.6106 23.7629 19.0967 24.0388 20.5976 24.0388C22.0984 24.0388 23.5847 23.7629 24.9707 23.2272C26.3568 22.6915 27.6156 21.9062 28.6749 20.9166C29.7344 19.9272 30.5734 18.7527 31.144 17.4606C31.7146 16.1686 32.0054 14.7845 32 13.3876Z" fill="url(#paint0_linear_8001_22)"/>
<path d="M10.4178 20.7433C9.356 21.7735 8.08118 22.5932 6.67012 23.1528C5.25904 23.7126 3.74088 24.0007 2.20702 24C1.62172 24 1.06038 23.7836 0.646508 23.3983C0.232635 23.0132 0.000121823 22.4907 0.000121846 21.946C0.00012187 21.4012 0.232635 20.8787 0.646508 20.4936C1.06038 20.1083 1.62172 19.892 2.20702 19.892C3.39414 19.8914 4.56156 19.6095 5.59918 19.0727C6.6368 18.536 7.51044 17.7621 8.13771 16.824C8.59075 18.266 9.36796 19.602 10.4178 20.7433Z" fill="url(#paint1_linear_8001_22)"/>
<path d="M22.8045 10.6126C22.8045 7.79798 21.6032 5.09868 19.4649 3.10848C17.3266 1.11827 14.4263 0.000183736 11.4023 0.000183604C8.3782 0.000183472 5.47799 1.11827 3.33965 3.10848C1.20131 5.09868 -3.40852e-07 7.79798 -4.63882e-07 10.6126C-4.87694e-07 11.1573 0.232512 11.6798 0.646385 12.065C1.06026 12.4502 1.62159 12.6666 2.2069 12.6666C2.7922 12.6666 3.35353 12.4502 3.76742 12.065C4.18129 11.6798 4.4138 11.1573 4.4138 10.6126C4.4138 9.75839 4.59455 8.9126 4.94576 8.12346C5.29697 7.33431 5.81174 6.61728 6.46067 6.01329C7.10962 5.40931 7.88001 4.9302 8.72791 4.60333C9.57578 4.27645 10.4845 4.10822 11.4023 4.10822C12.32 4.10822 13.2288 4.27645 14.0766 4.60333C14.9245 4.9302 15.6949 5.40931 16.3439 6.01329C16.9928 6.61729 17.5076 7.33431 17.8588 8.12346C18.2099 8.91261 18.3908 9.7584 18.3908 10.6126C18.3908 11.1573 18.6232 11.6798 19.0372 12.065C19.451 12.4502 20.0123 12.6666 20.5976 12.6666C21.183 12.6666 21.7443 12.4502 22.1581 12.065C22.5721 11.6798 22.8045 11.1573 22.8045 10.6126Z" fill="url(#paint2_linear_8001_22)"/>
<path d="M21.5822 3.25664C22.644 2.22635 23.9187 1.40668 25.3299 0.846979C26.741 0.287274 28.2591 -0.000893161 29.7931 -0.000173475C30.0845 -0.00241702 30.3733 0.0490556 30.6433 0.151274C30.9131 0.253492 31.1586 0.404434 31.3654 0.59539C31.5724 0.786346 31.7366 1.01354 31.8485 1.26386C31.9606 1.51417 32.0183 1.78267 32.0183 2.05384C32.0183 2.32502 31.9606 2.59352 31.8485 2.84384C31.7366 3.09416 31.5724 3.32134 31.3654 3.5123C31.1586 3.70325 30.9131 3.85419 30.6433 3.95641C30.3733 4.05863 30.0845 4.1101 29.7931 4.10786C28.606 4.1084 27.4385 4.39037 26.4008 4.92717C25.3631 5.46395 24.4895 6.2379 23.8622 7.17598C23.4092 5.73391 22.6319 4.39795 21.5822 3.25664Z" fill="#E64A1A"/>
</g>
<defs>
<linearGradient id="paint0_linear_8001_22" x1="32" y1="17.6861" x2="9.19519" y2="17.6861" gradientUnits="userSpaceOnUse">
<stop stop-color="#E9592D"/>
<stop offset="1" stop-color="#F39519"/>
</linearGradient>
<linearGradient id="paint1_linear_8001_22" x1="9.34479" y1="18.7687" x2="3.18696" y2="25.7478" gradientUnits="userSpaceOnUse">
<stop offset="0.005" stop-color="#F39519"/>
<stop offset="0.146" stop-color="#F39519"/>
<stop offset="1" stop-color="#F39519"/>
</linearGradient>
<linearGradient id="paint2_linear_8001_22" x1="22.8045" y1="6.33338" x2="-2.76833e-07" y2="6.33338" gradientUnits="userSpaceOnUse">
<stop stop-color="#E9592D"/>
<stop offset="1" stop-color="#F39519"/>
</linearGradient>
</defs>
</svg>
